<svg xmlns="http://www.w3.org/2000/svg" xmlns:xlink="http://www.w3.org/1999/xlink" width="600" zoomAndPan="magnify" viewBox="0 0 450 149.999998" height="200" preserveAspectRatio="xMidYMid meet" version="1.2"><defs/><g id="4055c8d37f"><g style="fill:#ffffff;fill-opacity:1;"><g transform="translate(0.013855, 98.491748)"><path style="stroke:none" d="M 3.515625 -45.140625 L 8.578125 -45.4375 C 8.617188 -44.113281 8.640625 -42.476562 8.640625 -40.53125 C 8.640625 -38.625 8.617188 -36.984375 8.578125 -35.609375 L 3.59375 -35.765625 C 3.6875 -38.984375 3.660156 -42.109375 3.515625 -45.140625 Z M 15.171875 -45.4375 C 15.222656 -44.113281 15.25 -42.476562 15.25 -40.53125 C 15.289062 -38.625 15.289062 -36.984375 15.25 -35.609375 L 10.1875 -35.765625 C 10.28125 -39.035156 10.253906 -42.160156 10.109375 -45.140625 Z M 15.171875 -45.4375 "/></g></g><g style="fill:#ffffff;fill-opacity:1;"><g transform="translate(18.845045, 98.491748)"><path style="stroke:none" d="M 30.34375 -31.796875 C 30.488281 -31.066406 30.5625 -30.164062 30.5625 -29.09375 C 30.507812 -27.96875 30.457031 -27.132812 30.40625 -26.59375 C 30.21875 -23.125 29.488281 -19.828125 28.21875 -16.703125 C 26.84375 -13.378906 24.984375 -10.472656 22.640625 -7.984375 C 20.203125 -5.347656 17.367188 -3.320312 14.140625 -1.90625 C 13.160156 -1.46875 12.113281 -1.101562 11 -0.8125 L 11 -0.65625 L 10.625 -0.65625 C 8.375 -0.0703125 6.128906 0.21875 3.890625 0.21875 L 3.890625 -4.390625 L 2.9375 -50.34375 L 3.15625 -50.34375 L 3.078125 -50.640625 C 6.835938 -51.515625 10.351562 -51.613281 13.625 -50.9375 C 15.4375 -50.539062 17.148438 -49.925781 18.765625 -49.09375 C 20.421875 -48.269531 21.910156 -47.222656 23.234375 -45.953125 C 25.867188 -43.503906 27.820312 -40.519531 29.09375 -37 C 29.726562 -35.34375 30.144531 -33.609375 30.34375 -31.796875 Z M 23.453125 -27.109375 C 23.453125 -27.453125 23.472656 -28.140625 23.515625 -29.171875 C 23.472656 -29.898438 23.425781 -30.484375 23.375 -30.921875 C 23.226562 -32.191406 22.9375 -33.414062 22.5 -34.59375 C 21.570312 -37.082031 20.226562 -39.132812 18.46875 -40.75 C 16.65625 -42.457031 14.554688 -43.554688 12.171875 -44.046875 C 11.535156 -44.191406 10.847656 -44.265625 10.109375 -44.265625 L 10.84375 -8.203125 C 11.132812 -8.304688 11.28125 -8.359375 11.28125 -8.359375 C 13.625 -9.378906 15.703125 -10.867188 17.515625 -12.828125 C 19.273438 -14.679688 20.664062 -16.851562 21.6875 -19.34375 C 22.664062 -21.789062 23.253906 -24.378906 23.453125 -27.109375 Z M 23.453125 -27.109375 "/></g></g><g style="fill:#ffffff;fill-opacity:1;"><g transform="translate(52.330863, 98.491748)"><path style="stroke:none" d="M 10.484375 -28.578125 C 10.578125 -22.671875 10.84375 -16.023438 11.28125 -8.640625 L 4.25 -8.28125 C 3.8125 -15.757812 3.539062 -22.476562 3.4375 -28.4375 Z M 9.703125 -33.484375 C 8.953125 -32.703125 8.035156 -32.285156 6.953125 -32.234375 C 5.878906 -32.191406 4.953125 -32.546875 4.171875 -33.296875 C 3.390625 -34.054688 2.972656 -34.972656 2.921875 -36.046875 C 2.878906 -37.128906 3.234375 -38.0625 3.984375 -38.84375 C 4.742188 -39.625 5.660156 -40.035156 6.734375 -40.078125 C 7.472656 -40.078125 8.144531 -39.914062 8.75 -39.59375 C 9.363281 -39.28125 9.851562 -38.832031 10.21875 -38.25 C 10.582031 -37.664062 10.765625 -37.007812 10.765625 -36.28125 C 10.816406 -35.195312 10.460938 -34.265625 9.703125 -33.484375 Z M 9.703125 -33.484375 "/></g></g><g style="fill:#ffffff;fill-opacity:1;"><g transform="translate(66.692395, 98.491748)"><path style="stroke:none" d="M 26.234375 -17.875 C 26.328125 -16.070312 25.960938 -14.363281 25.140625 -12.75 C 24.742188 -12.019531 24.28125 -11.335938 23.75 -10.703125 C 23.113281 -10.015625 22.476562 -9.425781 21.84375 -8.9375 C 21.101562 -8.445312 20.320312 -8.054688 19.5 -7.765625 C 18.71875 -7.472656 17.910156 -7.28125 17.078125 -7.1875 C 15.410156 -6.988281 13.796875 -7.15625 12.234375 -7.6875 C 10.722656 -8.175781 9.332031 -8.9375 8.0625 -9.96875 C 6.9375 -10.945312 5.984375 -12.144531 5.203125 -13.5625 C 3.878906 -15.90625 3.125 -18.59375 2.9375 -21.625 C 2.882812 -22.988281 2.957031 -24.332031 3.15625 -25.65625 C 3.34375 -27.113281 3.679688 -28.476562 4.171875 -29.75 C 4.765625 -31.21875 5.5 -32.515625 6.375 -33.640625 C 7.40625 -34.953125 8.628906 -35.976562 10.046875 -36.71875 C 11.503906 -37.445312 13.066406 -37.859375 14.734375 -37.953125 C 15.078125 -38.003906 15.269531 -38.03125 15.3125 -38.03125 L 15.90625 -37.953125 L 16.78125 -37.953125 L 17.140625 -37.890625 C 18.023438 -37.742188 18.90625 -37.472656 19.78125 -37.078125 C 21.25 -36.347656 22.519531 -35.347656 23.59375 -34.078125 C 24.226562 -33.296875 24.691406 -32.5625 24.984375 -31.875 C 25.472656 -30.894531 25.742188 -29.921875 25.796875 -28.953125 L 18.765625 -28.65625 L 18.765625 -28.71875 C 18.765625 -28.71875 18.738281 -28.742188 18.6875 -28.796875 C 18.6875 -28.847656 18.660156 -28.875 18.609375 -28.875 C 18.566406 -29.019531 18.445312 -29.238281 18.25 -29.53125 C 17.8125 -30.019531 17.296875 -30.410156 16.703125 -30.703125 C 16.515625 -30.796875 16.320312 -30.867188 16.125 -30.921875 C 16.070312 -30.921875 16.046875 -30.921875 16.046875 -30.921875 L 15.6875 -30.921875 L 15.46875 -31 C 15.414062 -31 15.34375 -30.972656 15.25 -30.921875 L 15.171875 -30.921875 C 14.484375 -30.867188 13.867188 -30.707031 13.328125 -30.4375 C 12.796875 -30.175781 12.3125 -29.773438 11.875 -29.234375 C 11.4375 -28.648438 11.066406 -27.96875 10.765625 -27.1875 C 10.128906 -25.675781 9.859375 -23.953125 9.953125 -22.015625 C 10.054688 -20.085938 10.5 -18.414062 11.28125 -17 C 11.675781 -16.3125 12.117188 -15.773438 12.609375 -15.390625 C 13.140625 -14.898438 13.722656 -14.554688 14.359375 -14.359375 C 15.734375 -13.921875 16.882812 -14.046875 17.8125 -14.734375 C 18.300781 -15.078125 18.664062 -15.488281 18.90625 -15.96875 C 19.144531 -16.457031 19.242188 -16.945312 19.203125 -17.4375 Z M 26.234375 -17.875 "/></g></g><g style="fill:#ffffff;fill-opacity:1;"><g transform="translate(95.928362, 98.491748)"><path style="stroke:none" d="M 24.546875 -11.4375 L 20.078125 -6.015625 C 16.953125 -8.546875 13.703125 -11.035156 10.328125 -13.484375 L 10.109375 -5.71875 L 3.078125 -5.859375 L 4.328125 -48.21875 L 11.359375 -47.921875 L 10.703125 -25.140625 C 13.878906 -27.429688 16.078125 -30.335938 17.296875 -33.859375 L 23.96875 -31.578125 C 22.738281 -28.109375 20.804688 -25.03125 18.171875 -22.34375 C 17.046875 -21.175781 15.828125 -20.128906 14.515625 -19.203125 C 17.984375 -16.710938 21.328125 -14.125 24.546875 -11.4375 Z M 24.546875 -11.4375 "/></g></g><g style="fill:#ffffff;fill-opacity:1;"><g transform="translate(123.625595, 98.491748)"><path style="stroke:none" d="M 17.65625 -35.6875 L 24.703125 -35.6875 C 24.703125 -32.945312 24.601562 -28.742188 24.40625 -23.078125 L 24.03125 -10.546875 C 23.988281 -9.273438 23.894531 -8.128906 23.75 -7.109375 C 23.550781 -5.691406 23.253906 -4.445312 22.859375 -3.375 C 22.566406 -2.632812 22.25 -1.972656 21.90625 -1.390625 C 21.46875 -0.609375 20.957031 0.0703125 20.375 0.65625 C 19.632812 1.34375 18.828125 1.859375 17.953125 2.203125 C 17.078125 2.546875 16.148438 2.71875 15.171875 2.71875 C 15.171875 2.71875 15.097656 2.71875 14.953125 2.71875 L 14.140625 2.71875 C 13.796875 2.71875 13.625 2.71875 13.625 2.71875 L 13.046875 2.640625 C 12.410156 2.535156 11.675781 2.363281 10.84375 2.125 C 10.3125 1.882812 9.945312 1.710938 9.75 1.609375 C 9.207031 1.316406 8.835938 1.125 8.640625 1.03125 C 8.160156 0.632812 7.820312 0.363281 7.625 0.21875 C 7.570312 0.164062 7.492188 0.09375 7.390625 0 C 7.296875 -0.09375 7.222656 -0.175781 7.171875 -0.25 C 7.128906 -0.320312 7.070312 -0.394531 7 -0.46875 C 6.925781 -0.550781 6.835938 -0.640625 6.734375 -0.734375 C 5.804688 -1.859375 5.125 -3.226562 4.6875 -4.84375 C 4.394531 -6.101562 4.25 -7.46875 4.25 -8.9375 L 11.28125 -8.71875 C 11.28125 -7.9375 11.351562 -7.226562 11.5 -6.59375 C 11.644531 -6.007812 11.867188 -5.546875 12.171875 -5.203125 C 12.460938 -4.910156 12.800781 -4.691406 13.1875 -4.546875 C 13.582031 -4.441406 13.851562 -4.367188 14 -4.328125 L 14.21875 -4.328125 C 14.269531 -4.328125 14.316406 -4.328125 14.359375 -4.328125 C 14.410156 -4.328125 14.460938 -4.328125 14.515625 -4.328125 L 15.015625 -4.328125 C 15.117188 -4.328125 15.21875 -4.328125 15.3125 -4.328125 C 15.363281 -4.367188 15.4375 -4.414062 15.53125 -4.46875 C 15.78125 -4.71875 16.015625 -5.15625 16.234375 -5.78125 C 16.453125 -6.414062 16.632812 -7.203125 16.78125 -8.140625 C 16.875 -8.921875 16.945312 -9.820312 17 -10.84375 L 17.140625 -15.3125 C 16.847656 -15.164062 16.554688 -15.066406 16.265625 -15.015625 C 15.191406 -14.722656 14.117188 -14.601562 13.046875 -14.65625 C 11.828125 -14.75 10.703125 -15.066406 9.671875 -15.609375 C 8.742188 -16.046875 7.890625 -16.679688 7.109375 -17.515625 C 6.472656 -18.148438 5.882812 -18.882812 5.34375 -19.71875 C 4.851562 -20.5 4.460938 -21.328125 4.171875 -22.203125 C 3.585938 -23.710938 3.222656 -25.375 3.078125 -27.1875 C 2.984375 -28.019531 2.984375 -29.570312 3.078125 -31.84375 C 3.171875 -34.113281 3.21875 -35.441406 3.21875 -35.828125 L 10.265625 -35.765625 C 10.265625 -35.128906 10.210938 -33.859375 10.109375 -31.953125 C 10.015625 -30.046875 10.015625 -28.65625 10.109375 -27.78125 C 10.210938 -26.601562 10.429688 -25.578125 10.765625 -24.703125 C 10.921875 -24.253906 11.117188 -23.835938 11.359375 -23.453125 C 11.597656 -23.015625 11.867188 -22.671875 12.171875 -22.421875 C 12.410156 -22.179688 12.648438 -21.988281 12.890625 -21.84375 C 13.046875 -21.738281 13.242188 -21.6875 13.484375 -21.6875 C 14.066406 -21.644531 14.675781 -21.816406 15.3125 -22.203125 C 15.414062 -22.253906 15.539062 -22.351562 15.6875 -22.5 C 15.78125 -22.59375 15.875 -22.691406 15.96875 -22.796875 C 16.164062 -23.085938 16.363281 -23.453125 16.5625 -23.890625 C 16.945312 -24.671875 17.265625 -25.625 17.515625 -26.75 C 17.609375 -30.363281 17.65625 -33.34375 17.65625 -35.6875 Z M 17.65625 -35.6875 "/></g></g><g style="fill:#ffffff;fill-opacity:1;"><g transform="translate(151.17628, 98.491748)"><path style="stroke:none" d="M 7.984375 -45.4375 C 8.035156 -44.113281 8.0625 -42.476562 8.0625 -40.53125 C 8.0625 -38.625 8.035156 -36.984375 7.984375 -35.609375 L 3 -35.765625 C 3.101562 -38.984375 3.082031 -42.109375 2.9375 -45.140625 Z M 7.984375 -45.4375 "/></g></g><g style="fill:#ffffff;fill-opacity:1;"><g transform="translate(164.951622, 98.491748)"><path style="stroke:none" d="M 20.953125 -14.734375 L 20.953125 -14.359375 C 21.097656 -13.429688 21.078125 -12.476562 20.890625 -11.5 C 20.691406 -10.476562 20.300781 -9.550781 19.71875 -8.71875 C 18.59375 -7.101562 17.078125 -6.003906 15.171875 -5.421875 C 14.335938 -5.179688 13.457031 -5.0625 12.53125 -5.0625 C 11.65625 -5.0625 10.773438 -5.15625 9.890625 -5.34375 C 8.179688 -5.832031 6.691406 -6.765625 5.421875 -8.140625 C 4.398438 -9.359375 3.617188 -10.773438 3.078125 -12.390625 L 9.8125 -14.4375 C 10.007812 -13.800781 10.304688 -13.285156 10.703125 -12.890625 C 10.992188 -12.503906 11.359375 -12.265625 11.796875 -12.171875 C 12.046875 -12.117188 12.28125 -12.09375 12.5 -12.09375 C 12.71875 -12.09375 12.925781 -12.117188 13.125 -12.171875 C 13.457031 -12.265625 13.722656 -12.429688 13.921875 -12.671875 C 13.972656 -12.722656 14 -12.820312 14 -12.96875 C 14.039062 -13.113281 14.039062 -13.257812 14 -13.40625 L 14 -13.5625 C 13.945312 -13.65625 13.921875 -13.726562 13.921875 -13.78125 C 13.921875 -13.820312 13.90625 -13.84375 13.875 -13.84375 C 13.851562 -13.84375 13.84375 -13.867188 13.84375 -13.921875 C 13.800781 -13.972656 13.78125 -14 13.78125 -14 C 13.78125 -14.039062 13.765625 -14.070312 13.734375 -14.09375 C 13.710938 -14.125 13.703125 -14.140625 13.703125 -14.140625 L 13.625 -14.21875 C 13.582031 -14.21875 13.5625 -14.21875 13.5625 -14.21875 C 13.457031 -14.363281 13.1875 -14.582031 12.75 -14.875 C 12.40625 -15.070312 12.015625 -15.289062 11.578125 -15.53125 L 10.046875 -16.34375 C 9.410156 -16.726562 8.820312 -17.09375 8.28125 -17.4375 L 7.84375 -17.8125 L 7.40625 -18.171875 C 7.113281 -18.421875 6.84375 -18.664062 6.59375 -18.90625 C 6.0625 -19.394531 5.5625 -19.96875 5.09375 -20.625 C 4.625 -21.289062 4.242188 -21.988281 3.953125 -22.71875 C 3.609375 -23.5 3.363281 -24.28125 3.21875 -25.0625 C 3.070312 -25.988281 3.023438 -26.84375 3.078125 -27.625 C 3.171875 -28.40625 3.34375 -29.238281 3.59375 -30.125 C 4.175781 -31.925781 5.222656 -33.390625 6.734375 -34.515625 C 8.203125 -35.640625 9.890625 -36.226562 11.796875 -36.28125 C 13.648438 -36.320312 15.359375 -35.878906 16.921875 -34.953125 L 17.4375 -34.59375 C 17.726562 -34.394531 17.925781 -34.269531 18.03125 -34.21875 C 18.226562 -34.019531 18.398438 -33.847656 18.546875 -33.703125 C 18.691406 -33.609375 18.859375 -33.441406 19.046875 -33.203125 C 19.585938 -32.609375 20.054688 -31.921875 20.453125 -31.140625 C 21.128906 -29.828125 21.59375 -28.390625 21.84375 -26.828125 L 14.875 -25.796875 C 14.726562 -26.578125 14.507812 -27.285156 14.21875 -27.921875 C 14.070312 -28.160156 13.925781 -28.378906 13.78125 -28.578125 C 13.675781 -28.628906 13.625 -28.65625 13.625 -28.65625 C 13.625 -28.695312 13.625 -28.71875 13.625 -28.71875 C 13.625 -28.71875 13.601562 -28.742188 13.5625 -28.796875 C 13.507812 -28.796875 13.484375 -28.796875 13.484375 -28.796875 C 13.429688 -28.847656 13.382812 -28.875 13.34375 -28.875 C 12.945312 -29.113281 12.503906 -29.234375 12.015625 -29.234375 C 11.578125 -29.234375 11.238281 -29.113281 11 -28.875 C 10.65625 -28.625 10.410156 -28.28125 10.265625 -27.84375 C 10.160156 -27.550781 10.109375 -27.304688 10.109375 -27.109375 C 10.109375 -26.921875 10.132812 -26.65625 10.1875 -26.3125 C 10.238281 -26.0625 10.320312 -25.789062 10.4375 -25.5 C 10.5625 -25.207031 10.722656 -24.941406 10.921875 -24.703125 C 11.117188 -24.359375 11.335938 -24.085938 11.578125 -23.890625 C 11.671875 -23.796875 11.789062 -23.671875 11.9375 -23.515625 L 12.171875 -23.296875 L 12.390625 -23.15625 C 12.679688 -22.957031 13.046875 -22.738281 13.484375 -22.5 L 14.953125 -21.765625 C 15.535156 -21.421875 16.070312 -21.078125 16.5625 -20.734375 C 17.394531 -20.203125 18.03125 -19.738281 18.46875 -19.34375 C 18.5625 -19.195312 18.632812 -19.125 18.6875 -19.125 L 18.90625 -18.828125 C 19.144531 -18.535156 19.289062 -18.367188 19.34375 -18.328125 C 19.6875 -17.835938 19.957031 -17.421875 20.15625 -17.078125 C 20.300781 -16.828125 20.492188 -16.363281 20.734375 -15.6875 L 20.890625 -15.015625 Z M 20.953125 -14.734375 "/></g></g><g style="fill:#ffffff;fill-opacity:1;"><g transform="translate(189.864479, 98.491748)"><path style="stroke:none" d=""/></g></g><g style="fill:#ffffff;fill-opacity:1;"><g transform="translate(203.639821, 98.491748)"><path style="stroke:none" d="M 24.109375 -37.953125 C 24.253906 -36.984375 24.328125 -35.9375 24.328125 -34.8125 C 24.378906 -32.613281 24.109375 -30.488281 23.515625 -28.4375 L 23.296875 -27.703125 L 23.015625 -26.828125 L 22.859375 -26.453125 L 22.640625 -26.015625 C 22.398438 -25.523438 22.28125 -25.253906 22.28125 -25.203125 C 21.738281 -24.179688 21.078125 -23.226562 20.296875 -22.34375 C 18.878906 -20.738281 17.171875 -19.347656 15.171875 -18.171875 C 13.703125 -17.335938 11.96875 -16.554688 9.96875 -15.828125 C 10.019531 -10.359375 10.066406 -5.054688 10.109375 0.078125 L 3.078125 0.21875 C 2.785156 -17.363281 2.882812 -34.734375 3.375 -51.890625 L 7.6875 -51.8125 C 9.894531 -52.050781 12 -51.78125 14 -51 C 15.125 -50.613281 16.171875 -50.078125 17.140625 -49.390625 C 18.117188 -48.753906 19.007812 -48.007812 19.8125 -47.15625 C 20.625 -46.300781 21.320312 -45.382812 21.90625 -44.40625 C 22.050781 -44.113281 22.320312 -43.578125 22.71875 -42.796875 C 23.007812 -42.066406 23.226562 -41.53125 23.375 -41.1875 C 23.425781 -40.988281 23.570312 -40.472656 23.8125 -39.640625 C 23.957031 -38.765625 24.054688 -38.203125 24.109375 -37.953125 Z M 16.78125 -30.34375 C 17.175781 -31.757812 17.347656 -33.222656 17.296875 -34.734375 C 17.296875 -35.566406 17.242188 -36.300781 17.140625 -36.9375 C 17.140625 -37.03125 17.128906 -37.140625 17.109375 -37.265625 C 17.085938 -37.390625 17.0625 -37.523438 17.03125 -37.671875 C 17.007812 -37.816406 16.984375 -37.925781 16.953125 -38 C 16.929688 -38.070312 16.894531 -38.179688 16.84375 -38.328125 C 16.800781 -38.472656 16.765625 -38.59375 16.734375 -38.6875 C 16.710938 -38.789062 16.691406 -38.890625 16.671875 -38.984375 C 16.648438 -39.078125 16.539062 -39.394531 16.34375 -39.9375 C 16.050781 -40.476562 15.878906 -40.75 15.828125 -40.75 C 15.535156 -41.332031 15.15625 -41.851562 14.6875 -42.3125 C 14.226562 -42.78125 13.726562 -43.210938 13.1875 -43.609375 C 12.695312 -43.941406 12.160156 -44.207031 11.578125 -44.40625 C 11.140625 -44.601562 10.703125 -44.726562 10.265625 -44.78125 C 10.117188 -37.84375 10.019531 -30.734375 9.96875 -23.453125 C 12.164062 -24.429688 13.828125 -25.601562 14.953125 -26.96875 C 15.390625 -27.457031 15.753906 -27.96875 16.046875 -28.5 C 16.097656 -28.550781 16.132812 -28.625 16.15625 -28.71875 C 16.175781 -28.820312 16.210938 -28.898438 16.265625 -28.953125 L 16.421875 -29.390625 L 16.5625 -29.828125 Z M 16.78125 -30.34375 "/></g></g><g style="fill:#ffffff;fill-opacity:1;"><g transform="translate(231.117219, 98.491748)"><path style="stroke:none" d="M 28.28125 -25.5 C 28.53125 -23.84375 28.484375 -22.160156 28.140625 -20.453125 C 27.796875 -18.835938 27.1875 -17.320312 26.3125 -15.90625 C 25.382812 -14.382812 24.234375 -13.140625 22.859375 -12.171875 C 21.441406 -11.085938 19.851562 -10.378906 18.09375 -10.046875 C 16.4375 -9.703125 14.726562 -9.703125 12.96875 -10.046875 C 11.207031 -10.378906 9.644531 -11.007812 8.28125 -11.9375 C 6.769531 -12.96875 5.546875 -14.265625 4.609375 -15.828125 C 3.734375 -17.296875 3.195312 -18.929688 3 -20.734375 C 2.851562 -22.253906 2.953125 -23.851562 3.296875 -25.53125 C 3.640625 -27.21875 4.175781 -28.722656 4.90625 -30.046875 C 5.789062 -31.609375 6.890625 -32.898438 8.203125 -33.921875 C 8.984375 -34.515625 9.890625 -35.003906 10.921875 -35.390625 C 11.703125 -35.640625 12.53125 -35.835938 13.40625 -35.984375 C 14.925781 -36.179688 16.488281 -36.179688 18.09375 -35.984375 C 18.539062 -35.929688 18.957031 -35.859375 19.34375 -35.765625 C 19.832031 -35.660156 20.273438 -35.535156 20.671875 -35.390625 C 21.546875 -35.046875 22.347656 -34.609375 23.078125 -34.078125 C 23.816406 -33.585938 24.503906 -33 25.140625 -32.3125 C 25.429688 -31.96875 25.695312 -31.601562 25.9375 -31.21875 C 26.082031 -31.019531 26.207031 -30.847656 26.3125 -30.703125 L 26.59375 -30.125 C 27.425781 -28.707031 27.988281 -27.164062 28.28125 -25.5 Z M 21.25 -21.90625 C 21.445312 -22.738281 21.472656 -23.546875 21.328125 -24.328125 C 21.179688 -25.210938 20.910156 -25.992188 20.515625 -26.671875 C 20.222656 -27.109375 20.003906 -27.425781 19.859375 -27.625 C 19.617188 -27.914062 19.363281 -28.144531 19.09375 -28.3125 C 18.820312 -28.488281 18.539062 -28.648438 18.25 -28.796875 C 18.101562 -28.847656 17.929688 -28.898438 17.734375 -28.953125 C 17.734375 -28.953125 17.660156 -28.953125 17.515625 -28.953125 C 17.460938 -28.992188 17.363281 -29.015625 17.21875 -29.015625 C 16.238281 -29.117188 15.285156 -29.117188 14.359375 -29.015625 C 13.921875 -28.921875 13.53125 -28.820312 13.1875 -28.71875 C 12.945312 -28.625 12.753906 -28.53125 12.609375 -28.4375 C 11.378906 -27.457031 10.570312 -26.015625 10.1875 -24.109375 C 9.988281 -23.179688 9.941406 -22.328125 10.046875 -21.546875 C 10.140625 -20.710938 10.359375 -19.976562 10.703125 -19.34375 C 11.484375 -18.070312 12.703125 -17.265625 14.359375 -16.921875 C 15.972656 -16.585938 17.414062 -16.882812 18.6875 -17.8125 C 19.320312 -18.300781 19.859375 -18.882812 20.296875 -19.5625 C 20.785156 -20.34375 21.101562 -21.125 21.25 -21.90625 Z M 21.25 -21.90625 "/></g></g><g style="fill:#ffffff;fill-opacity:1;"><g transform="translate(262.551398, 98.491748)"><path style="stroke:none" d="M 20.15625 -35.46875 L 20.515625 -28.4375 C 19.148438 -28.332031 17.859375 -28.0625 16.640625 -27.625 C 16.046875 -27.382812 15.484375 -27.09375 14.953125 -26.75 C 14.703125 -26.601562 14.429688 -26.429688 14.140625 -26.234375 L 13.84375 -25.9375 L 13.484375 -25.65625 C 12.503906 -24.769531 11.769531 -23.789062 11.28125 -22.71875 C 10.789062 -21.644531 10.546875 -20.492188 10.546875 -19.265625 L 10.484375 -19.265625 C 10.628906 -15.117188 10.800781 -11.335938 11 -7.921875 L 3.953125 -7.546875 C 3.460938 -16.679688 3.125 -25.84375 2.9375 -35.03125 L 9.96875 -35.171875 C 9.96875 -34.785156 9.976562 -34.175781 10 -33.34375 C 10.03125 -32.507812 10.046875 -32.046875 10.046875 -31.953125 C 10.484375 -32.296875 10.875 -32.5625 11.21875 -32.75 C 12.144531 -33.289062 13.09375 -33.757812 14.0625 -34.15625 C 15.96875 -34.882812 18 -35.320312 20.15625 -35.46875 Z M 20.15625 -35.46875 "/></g></g><g style="fill:#ffffff;fill-opacity:1;"><g transform="translate(285.998807, 98.491748)"><path style="stroke:none" d="M 23.8125 -34.078125 L 23.671875 -27.046875 C 21.671875 -27.085938 19.375 -27.109375 16.78125 -27.109375 L 16.859375 -16.78125 C 16.898438 -11.945312 16.875 -8.304688 16.78125 -5.859375 L 9.75 -6.15625 C 9.84375 -8.5 9.863281 -12.015625 9.8125 -16.703125 L 9.75 -27.109375 C 7.007812 -27.109375 4.738281 -27.109375 2.9375 -27.109375 L 3 -34.15625 C 4.8125 -34.15625 7.035156 -34.15625 9.671875 -34.15625 L 9.59375 -38.171875 C 9.59375 -43.054688 9.644531 -46.695312 9.75 -49.09375 L 16.78125 -48.8125 C 16.6875 -46.457031 16.640625 -42.9375 16.640625 -38.25 L 16.703125 -34.15625 C 19.390625 -34.15625 21.757812 -34.128906 23.8125 -34.078125 Z M 23.8125 -34.078125 "/></g></g><g style="fill:#ffffff;fill-opacity:1;"><g transform="translate(312.816755, 98.491748)"><path style="stroke:none" d="M 20.375 -29.53125 L 20.515625 -22.5 L 13.484375 -22.34375 C 13.628906 -17.164062 13.945312 -12.113281 14.4375 -7.1875 L 7.40625 -6.515625 C 6.914062 -11.648438 6.597656 -16.851562 6.453125 -22.125 L 3.078125 -22.0625 L 2.9375 -29.09375 L 6.296875 -29.171875 C 6.296875 -31.367188 6.320312 -33.394531 6.375 -35.25 C 6.425781 -37.101562 6.472656 -38.375 6.515625 -39.0625 C 6.617188 -40.675781 6.890625 -42.113281 7.328125 -43.375 C 7.617188 -44.164062 7.984375 -44.925781 8.421875 -45.65625 C 8.910156 -46.4375 9.472656 -47.144531 10.109375 -47.78125 C 10.847656 -48.507812 11.65625 -49.070312 12.53125 -49.46875 C 13.550781 -49.90625 14.625 -50.125 15.75 -50.125 C 16.726562 -50.125 17.734375 -49.925781 18.765625 -49.53125 C 19.585938 -49.195312 20.367188 -48.734375 21.109375 -48.140625 C 21.785156 -47.609375 22.421875 -47 23.015625 -46.3125 C 23.304688 -45.925781 23.550781 -45.582031 23.75 -45.28125 C 23.789062 -45.1875 23.882812 -44.992188 24.03125 -44.703125 L 24.1875 -44.40625 L 24.328125 -44.1875 C 24.671875 -43.457031 24.960938 -42.773438 25.203125 -42.140625 C 25.453125 -41.398438 25.648438 -40.640625 25.796875 -39.859375 C 25.941406 -38.890625 26.039062 -37.523438 26.09375 -35.765625 L 19.046875 -35.6875 C 19.003906 -37.050781 18.929688 -38.03125 18.828125 -38.625 C 18.679688 -39.40625 18.414062 -40.207031 18.03125 -41.03125 L 17.953125 -41.1875 L 17.875 -41.328125 C 17.78125 -41.429688 17.734375 -41.503906 17.734375 -41.546875 C 17.679688 -41.597656 17.609375 -41.722656 17.515625 -41.921875 C 17.265625 -42.160156 17.019531 -42.378906 16.78125 -42.578125 C 16.382812 -42.921875 16.019531 -43.09375 15.6875 -43.09375 C 15.582031 -43.09375 15.484375 -43.066406 15.390625 -43.015625 C 15.242188 -42.960938 15.097656 -42.863281 14.953125 -42.71875 C 14.554688 -42.332031 14.234375 -41.785156 13.984375 -41.078125 C 13.742188 -40.367188 13.601562 -39.5 13.5625 -38.46875 C 13.507812 -37.9375 13.457031 -36.816406 13.40625 -35.109375 C 13.363281 -33.347656 13.34375 -31.441406 13.34375 -29.390625 Z M 20.375 -29.53125 "/></g></g><g style="fill:#ffffff;fill-opacity:1;"><g transform="translate(340.807082, 98.491748)"><path style="stroke:none" d="M 28.28125 -25.5 C 28.53125 -23.84375 28.484375 -22.160156 28.140625 -20.453125 C 27.796875 -18.835938 27.1875 -17.320312 26.3125 -15.90625 C 25.382812 -14.382812 24.234375 -13.140625 22.859375 -12.171875 C 21.441406 -11.085938 19.851562 -10.378906 18.09375 -10.046875 C 16.4375 -9.703125 14.726562 -9.703125 12.96875 -10.046875 C 11.207031 -10.378906 9.644531 -11.007812 8.28125 -11.9375 C 6.769531 -12.96875 5.546875 -14.265625 4.609375 -15.828125 C 3.734375 -17.296875 3.195312 -18.929688 3 -20.734375 C 2.851562 -22.253906 2.953125 -23.851562 3.296875 -25.53125 C 3.640625 -27.21875 4.175781 -28.722656 4.90625 -30.046875 C 5.789062 -31.609375 6.890625 -32.898438 8.203125 -33.921875 C 8.984375 -34.515625 9.890625 -35.003906 10.921875 -35.390625 C 11.703125 -35.640625 12.53125 -35.835938 13.40625 -35.984375 C 14.925781 -36.179688 16.488281 -36.179688 18.09375 -35.984375 C 18.539062 -35.929688 18.957031 -35.859375 19.34375 -35.765625 C 19.832031 -35.660156 20.273438 -35.535156 20.671875 -35.390625 C 21.546875 -35.046875 22.347656 -34.609375 23.078125 -34.078125 C 23.816406 -33.585938 24.503906 -33 25.140625 -32.3125 C 25.429688 -31.96875 25.695312 -31.601562 25.9375 -31.21875 C 26.082031 -31.019531 26.207031 -30.847656 26.3125 -30.703125 L 26.59375 -30.125 C 27.425781 -28.707031 27.988281 -27.164062 28.28125 -25.5 Z M 21.25 -21.90625 C 21.445312 -22.738281 21.472656 -23.546875 21.328125 -24.328125 C 21.179688 -25.210938 20.910156 -25.992188 20.515625 -26.671875 C 20.222656 -27.109375 20.003906 -27.425781 19.859375 -27.625 C 19.617188 -27.914062 19.363281 -28.144531 19.09375 -28.3125 C 18.820312 -28.488281 18.539062 -28.648438 18.25 -28.796875 C 18.101562 -28.847656 17.929688 -28.898438 17.734375 -28.953125 C 17.734375 -28.953125 17.660156 -28.953125 17.515625 -28.953125 C 17.460938 -28.992188 17.363281 -29.015625 17.21875 -29.015625 C 16.238281 -29.117188 15.285156 -29.117188 14.359375 -29.015625 C 13.921875 -28.921875 13.53125 -28.820312 13.1875 -28.71875 C 12.945312 -28.625 12.753906 -28.53125 12.609375 -28.4375 C 11.378906 -27.457031 10.570312 -26.015625 10.1875 -24.109375 C 9.988281 -23.179688 9.941406 -22.328125 10.046875 -21.546875 C 10.140625 -20.710938 10.359375 -19.976562 10.703125 -19.34375 C 11.484375 -18.070312 12.703125 -17.265625 14.359375 -16.921875 C 15.972656 -16.585938 17.414062 -16.882812 18.6875 -17.8125 C 19.320312 -18.300781 19.859375 -18.882812 20.296875 -19.5625 C 20.785156 -20.34375 21.101562 -21.125 21.25 -21.90625 Z M 21.25 -21.90625 "/></g></g><g style="fill:#ffffff;fill-opacity:1;"><g transform="translate(372.241235, 98.491748)"><path style="stroke:none" d="M 9.96875 -47.859375 L 10.109375 -5.421875 L 3.078125 -5.34375 L 2.9375 -47.859375 Z M 9.96875 -47.859375 "/></g></g><g style="fill:#ffffff;fill-opacity:1;"><g transform="translate(385.35714, 98.491748)"><path style="stroke:none" d="M 10.484375 -28.578125 C 10.578125 -22.671875 10.84375 -16.023438 11.28125 -8.640625 L 4.25 -8.28125 C 3.8125 -15.757812 3.539062 -22.476562 3.4375 -28.4375 Z M 9.703125 -33.484375 C 8.953125 -32.703125 8.035156 -32.285156 6.953125 -32.234375 C 5.878906 -32.191406 4.953125 -32.546875 4.171875 -33.296875 C 3.390625 -34.054688 2.972656 -34.972656 2.921875 -36.046875 C 2.878906 -37.128906 3.234375 -38.0625 3.984375 -38.84375 C 4.742188 -39.625 5.660156 -40.035156 6.734375 -40.078125 C 7.472656 -40.078125 8.144531 -39.914062 8.75 -39.59375 C 9.363281 -39.28125 9.851562 -38.832031 10.21875 -38.25 C 10.582031 -37.664062 10.765625 -37.007812 10.765625 -36.28125 C 10.816406 -35.195312 10.460938 -34.265625 9.703125 -33.484375 Z M 9.703125 -33.484375 "/></g></g><g style="fill:#ffffff;fill-opacity:1;"><g transform="translate(399.718686, 98.491748)"><path style="stroke:none" d="M 28.28125 -25.5 C 28.53125 -23.84375 28.484375 -22.160156 28.140625 -20.453125 C 27.796875 -18.835938 27.1875 -17.320312 26.3125 -15.90625 C 25.382812 -14.382812 24.234375 -13.140625 22.859375 -12.171875 C 21.441406 -11.085938 19.851562 -10.378906 18.09375 -10.046875 C 16.4375 -9.703125 14.726562 -9.703125 12.96875 -10.046875 C 11.207031 -10.378906 9.644531 -11.007812 8.28125 -11.9375 C 6.769531 -12.96875 5.546875 -14.265625 4.609375 -15.828125 C 3.734375 -17.296875 3.195312 -18.929688 3 -20.734375 C 2.851562 -22.253906 2.953125 -23.851562 3.296875 -25.53125 C 3.640625 -27.21875 4.175781 -28.722656 4.90625 -30.046875 C 5.789062 -31.609375 6.890625 -32.898438 8.203125 -33.921875 C 8.984375 -34.515625 9.890625 -35.003906 10.921875 -35.390625 C 11.703125 -35.640625 12.53125 -35.835938 13.40625 -35.984375 C 14.925781 -36.179688 16.488281 -36.179688 18.09375 -35.984375 C 18.539062 -35.929688 18.957031 -35.859375 19.34375 -35.765625 C 19.832031 -35.660156 20.273438 -35.535156 20.671875 -35.390625 C 21.546875 -35.046875 22.347656 -34.609375 23.078125 -34.078125 C 23.816406 -33.585938 24.503906 -33 25.140625 -32.3125 C 25.429688 -31.96875 25.695312 -31.601562 25.9375 -31.21875 C 26.082031 -31.019531 26.207031 -30.847656 26.3125 -30.703125 L 26.59375 -30.125 C 27.425781 -28.707031 27.988281 -27.164062 28.28125 -25.5 Z M 21.25 -21.90625 C 21.445312 -22.738281 21.472656 -23.546875 21.328125 -24.328125 C 21.179688 -25.210938 20.910156 -25.992188 20.515625 -26.671875 C 20.222656 -27.109375 20.003906 -27.425781 19.859375 -27.625 C 19.617188 -27.914062 19.363281 -28.144531 19.09375 -28.3125 C 18.820312 -28.488281 18.539062 -28.648438 18.25 -28.796875 C 18.101562 -28.847656 17.929688 -28.898438 17.734375 -28.953125 C 17.734375 -28.953125 17.660156 -28.953125 17.515625 -28.953125 C 17.460938 -28.992188 17.363281 -29.015625 17.21875 -29.015625 C 16.238281 -29.117188 15.285156 -29.117188 14.359375 -29.015625 C 13.921875 -28.921875 13.53125 -28.820312 13.1875 -28.71875 C 12.945312 -28.625 12.753906 -28.53125 12.609375 -28.4375 C 11.378906 -27.457031 10.570312 -26.015625 10.1875 -24.109375 C 9.988281 -23.179688 9.941406 -22.328125 10.046875 -21.546875 C 10.140625 -20.710938 10.359375 -19.976562 10.703125 -19.34375 C 11.484375 -18.070312 12.703125 -17.265625 14.359375 -16.921875 C 15.972656 -16.585938 17.414062 -16.882812 18.6875 -17.8125 C 19.320312 -18.300781 19.859375 -18.882812 20.296875 -19.5625 C 20.785156 -20.34375 21.101562 -21.125 21.25 -21.90625 Z M 21.25 -21.90625 "/></g></g><g style="fill:#ffffff;fill-opacity:1;"><g transform="translate(431.152839, 98.491748)"><path style="stroke:none" d="M 3.515625 -45.140625 L 8.578125 -45.4375 C 8.617188 -44.113281 8.640625 -42.476562 8.640625 -40.53125 C 8.640625 -38.625 8.617188 -36.984375 8.578125 -35.609375 L 3.59375 -35.765625 C 3.6875 -38.984375 3.660156 -42.109375 3.515625 -45.140625 Z M 15.171875 -45.4375 C 15.222656 -44.113281 15.25 -42.476562 15.25 -40.53125 C 15.289062 -38.625 15.289062 -36.984375 15.25 -35.609375 L 10.1875 -35.765625 C 10.28125 -39.035156 10.253906 -42.160156 10.109375 -45.140625 Z M 15.171875 -45.4375 "/></g></g></g></svg>