<svg xmlns="http://www.w3.org/2000/svg" xmlns:xlink="http://www.w3.org/1999/xlink" width="600" zoomAndPan="magnify" viewBox="0 0 450 149.999998" height="200" preserveAspectRatio="xMidYMid meet" version="1.2"><defs/><g id="f0956ce1b0"><g style="fill:#ffffff;fill-opacity:1;"><g transform="translate(63.798942, 98.491748)"><path style="stroke:none" d="M 3.515625 -45.140625 L 8.578125 -45.4375 C 8.617188 -44.113281 8.640625 -42.476562 8.640625 -40.53125 C 8.640625 -38.625 8.617188 -36.984375 8.578125 -35.609375 L 3.59375 -35.765625 C 3.6875 -38.984375 3.660156 -42.109375 3.515625 -45.140625 Z M 15.171875 -45.4375 C 15.222656 -44.113281 15.25 -42.476562 15.25 -40.53125 C 15.289062 -38.625 15.289062 -36.984375 15.25 -35.609375 L 10.1875 -35.765625 C 10.28125 -39.035156 10.253906 -42.160156 10.109375 -45.140625 Z M 15.171875 -45.4375 "/></g></g><g style="fill:#ffffff;fill-opacity:1;"><g transform="translate(82.630132, 98.491748)"><path style="stroke:none" d="M 28.28125 -38.171875 C 28.332031 -37.546875 28.332031 -36.816406 28.28125 -35.984375 C 28.1875 -33.191406 27.457031 -30.476562 26.09375 -27.84375 C 24.769531 -25.40625 23.007812 -23.253906 20.8125 -21.390625 C 20.175781 -20.859375 19.441406 -20.320312 18.609375 -19.78125 C 18.859375 -19.59375 19.054688 -19.421875 19.203125 -19.265625 C 20.035156 -18.390625 20.691406 -17.414062 21.171875 -16.34375 C 21.660156 -15.269531 21.957031 -14.171875 22.0625 -13.046875 C 22.101562 -12.503906 22.101562 -11.914062 22.0625 -11.28125 C 22.0625 -10.789062 21.988281 -10.253906 21.84375 -9.671875 C 21.394531 -7.566406 20.414062 -5.6875 18.90625 -4.03125 L 18.609375 -3.734375 C 18.609375 -3.691406 18.515625 -3.570312 18.328125 -3.375 L 17.953125 -3.078125 L 17.734375 -2.9375 L 17.59375 -2.78125 C 17.25 -2.539062 17.003906 -2.367188 16.859375 -2.265625 L 16.125 -1.828125 C 15.195312 -1.390625 14.242188 -1.023438 13.265625 -0.734375 C 11.796875 -0.335938 10.035156 -0.0664062 7.984375 0.078125 C 6.421875 0.171875 4.738281 0.171875 2.9375 0.078125 L 3 -0.359375 L 2.9375 -0.359375 L 3.515625 -49.609375 C 6.691406 -50.535156 9.109375 -51.125 10.765625 -51.375 C 12.234375 -51.613281 13.628906 -51.707031 14.953125 -51.65625 C 16.566406 -51.5625 18.082031 -51.222656 19.5 -50.640625 C 20.957031 -50.054688 22.273438 -49.222656 23.453125 -48.140625 C 24.578125 -47.171875 25.53125 -45.976562 26.3125 -44.5625 C 27.039062 -43.289062 27.578125 -41.894531 27.921875 -40.375 C 27.972656 -40.082031 28.046875 -39.71875 28.140625 -39.28125 C 28.191406 -39.082031 28.238281 -38.710938 28.28125 -38.171875 Z M 15.015625 -11.71875 C 15.066406 -11.96875 15.066406 -12.164062 15.015625 -12.3125 C 15.015625 -12.75 14.921875 -13.140625 14.734375 -13.484375 C 14.585938 -13.828125 14.398438 -14.117188 14.171875 -14.359375 C 13.953125 -14.609375 13.648438 -14.804688 13.265625 -14.953125 C 12.921875 -15.148438 12.503906 -15.296875 12.015625 -15.390625 C 11.484375 -15.484375 10.945312 -15.53125 10.40625 -15.53125 C 10.351562 -15.53125 10.304688 -15.53125 10.265625 -15.53125 C 10.210938 -15.53125 10.160156 -15.53125 10.109375 -15.53125 L 10.046875 -7.25 C 10.578125 -7.351562 11.015625 -7.453125 11.359375 -7.546875 C 11.847656 -7.640625 12.335938 -7.8125 12.828125 -8.0625 C 12.921875 -8.15625 13.019531 -8.226562 13.125 -8.28125 C 13.21875 -8.332031 13.289062 -8.378906 13.34375 -8.421875 L 13.40625 -8.421875 L 13.40625 -8.5 C 13.457031 -8.5 13.484375 -8.5 13.484375 -8.5 L 13.484375 -8.578125 L 13.5625 -8.578125 L 13.703125 -8.71875 C 14.335938 -9.445312 14.753906 -10.253906 14.953125 -11.140625 C 14.992188 -11.378906 15.015625 -11.570312 15.015625 -11.71875 Z M 21.25 -36.34375 C 21.300781 -36.832031 21.300781 -37.25 21.25 -37.59375 C 21.195312 -37.9375 21.171875 -38.128906 21.171875 -38.171875 C 21.128906 -38.472656 21.082031 -38.695312 21.03125 -38.84375 C 20.832031 -39.664062 20.539062 -40.421875 20.15625 -41.109375 C 19.375 -42.578125 18.25 -43.578125 16.78125 -44.109375 C 15.601562 -44.648438 13.941406 -44.75 11.796875 -44.40625 C 11.410156 -44.351562 10.972656 -44.28125 10.484375 -44.1875 L 10.265625 -23.515625 C 12.609375 -24.304688 14.632812 -25.410156 16.34375 -26.828125 C 17.8125 -28.046875 18.984375 -29.484375 19.859375 -31.140625 C 20.734375 -32.804688 21.195312 -34.539062 21.25 -36.34375 Z M 21.25 -36.34375 "/></g></g><g style="fill:#ffffff;fill-opacity:1;"><g transform="translate(113.991024, 98.491748)"><path style="stroke:none" d="M 18.46875 -16.046875 C 18.5625 -16.335938 18.609375 -16.582031 18.609375 -16.78125 L 25.65625 -16.421875 C 25.601562 -15.535156 25.40625 -14.628906 25.0625 -13.703125 C 24.769531 -12.867188 24.40625 -12.085938 23.96875 -11.359375 C 23.425781 -10.578125 22.835938 -9.894531 22.203125 -9.3125 C 21.421875 -8.570312 20.59375 -8.03125 19.71875 -7.6875 C 19.613281 -7.644531 19.488281 -7.597656 19.34375 -7.546875 L 19.046875 -7.46875 L 18.546875 -7.25 C 18.492188 -7.25 18.421875 -7.226562 18.328125 -7.1875 L 17.875 -7.03125 L 17.296875 -6.96875 C 16.609375 -6.8125 15.753906 -6.710938 14.734375 -6.671875 C 13.023438 -6.710938 11.363281 -7.148438 9.75 -7.984375 C 8.28125 -8.765625 6.992188 -9.816406 5.890625 -11.140625 C 4.796875 -12.460938 4.003906 -13.90625 3.515625 -15.46875 C 3.421875 -15.707031 3.320312 -16.144531 3.21875 -16.78125 L 3.15625 -17.078125 C 3.15625 -17.117188 3.128906 -17.191406 3.078125 -17.296875 C 3.078125 -17.347656 3.078125 -17.375 3.078125 -17.375 C 3.023438 -17.707031 3 -17.875 3 -17.875 C 2.957031 -18.5625 2.9375 -19.296875 2.9375 -20.078125 C 2.9375 -21.546875 3.101562 -22.988281 3.4375 -24.40625 C 3.738281 -25.769531 4.179688 -27.132812 4.765625 -28.5 C 5.492188 -30.113281 6.394531 -31.457031 7.46875 -32.53125 C 8.101562 -33.164062 8.800781 -33.703125 9.5625 -34.140625 C 10.320312 -34.585938 11.140625 -34.929688 12.015625 -35.171875 C 13.921875 -35.753906 15.753906 -35.804688 17.515625 -35.328125 C 18.441406 -35.078125 19.320312 -34.660156 20.15625 -34.078125 C 20.882812 -33.585938 21.566406 -33 22.203125 -32.3125 C 22.453125 -32.019531 22.695312 -31.703125 22.9375 -31.359375 L 23.015625 -31.21875 L 23.15625 -31.078125 L 23.296875 -30.78125 C 23.398438 -30.632812 23.523438 -30.414062 23.671875 -30.125 C 24.015625 -29.488281 24.332031 -28.753906 24.625 -27.921875 C 24.96875 -26.796875 25.285156 -25.476562 25.578125 -23.96875 C 25.722656 -23.226562 25.820312 -22.566406 25.875 -21.984375 C 25.96875 -21.203125 26.015625 -20.519531 26.015625 -19.9375 L 18.984375 -19.640625 C 16.929688 -19.546875 13.925781 -19.375 9.96875 -19.125 C 10.019531 -18.882812 10.046875 -18.710938 10.046875 -18.609375 C 10.046875 -18.566406 10.046875 -18.507812 10.046875 -18.4375 C 10.046875 -18.363281 10.066406 -18.300781 10.109375 -18.25 C 10.109375 -18.25 10.109375 -18.222656 10.109375 -18.171875 C 10.109375 -18.117188 10.109375 -18.09375 10.109375 -18.09375 L 10.109375 -17.953125 C 10.210938 -17.660156 10.265625 -17.515625 10.265625 -17.515625 C 10.453125 -16.828125 10.789062 -16.191406 11.28125 -15.609375 C 11.769531 -15.023438 12.332031 -14.5625 12.96875 -14.21875 C 13.65625 -13.875 14.289062 -13.703125 14.875 -13.703125 C 15.414062 -13.753906 15.757812 -13.800781 15.90625 -13.84375 L 16.1875 -13.921875 C 16.1875 -13.921875 16.222656 -13.929688 16.296875 -13.953125 C 16.378906 -13.984375 16.421875 -14 16.421875 -14 L 16.703125 -14.0625 L 16.859375 -14.140625 C 16.898438 -14.140625 16.921875 -14.140625 16.921875 -14.140625 C 17.117188 -14.242188 17.289062 -14.367188 17.4375 -14.515625 C 17.632812 -14.703125 17.832031 -14.921875 18.03125 -15.171875 C 18.175781 -15.460938 18.320312 -15.753906 18.46875 -16.046875 Z M 12.453125 -27.546875 C 11.960938 -27.066406 11.550781 -26.410156 11.21875 -25.578125 C 11.164062 -25.523438 11.113281 -25.398438 11.0625 -25.203125 C 13.800781 -25.398438 16.097656 -25.550781 17.953125 -25.65625 L 17.875 -25.71875 C 17.726562 -26.15625 17.582031 -26.523438 17.4375 -26.828125 C 17.394531 -26.972656 17.375 -27.046875 17.375 -27.046875 C 17.375 -27.046875 17.359375 -27.054688 17.328125 -27.078125 C 17.304688 -27.097656 17.296875 -27.109375 17.296875 -27.109375 L 17.21875 -27.1875 C 17.125 -27.382812 17.003906 -27.53125 16.859375 -27.625 C 16.460938 -28.113281 16.046875 -28.40625 15.609375 -28.5 C 15.171875 -28.644531 14.632812 -28.625 14 -28.4375 C 13.707031 -28.332031 13.4375 -28.207031 13.1875 -28.0625 C 12.945312 -27.914062 12.703125 -27.742188 12.453125 -27.546875 Z M 12.453125 -27.546875 "/></g></g><g style="fill:#ffffff;fill-opacity:1;"><g transform="translate(143.007171, 98.491748)"><path style="stroke:none" d=""/></g></g><g style="fill:#ffffff;fill-opacity:1;"><g transform="translate(156.782513, 98.491748)"><path style="stroke:none" d="M 33.203125 -16.78125 C 33.242188 -15.507812 33.191406 -14.335938 33.046875 -13.265625 C 32.847656 -11.992188 32.582031 -10.867188 32.25 -9.890625 C 31.800781 -8.722656 31.285156 -7.671875 30.703125 -6.734375 C 30.015625 -5.660156 29.257812 -4.710938 28.4375 -3.890625 C 27.507812 -2.953125 26.484375 -2.191406 25.359375 -1.609375 C 24.128906 -1.023438 22.859375 -0.632812 21.546875 -0.4375 C 20.273438 -0.289062 18.976562 -0.34375 17.65625 -0.59375 C 16.488281 -0.832031 15.316406 -1.222656 14.140625 -1.765625 C 13.066406 -2.296875 12.066406 -2.953125 11.140625 -3.734375 C 10.304688 -4.472656 9.5 -5.28125 8.71875 -6.15625 C 7.394531 -7.8125 6.269531 -9.691406 5.34375 -11.796875 C 4.5625 -13.648438 3.953125 -15.65625 3.515625 -17.8125 C 3.367188 -18.738281 3.222656 -19.765625 3.078125 -20.890625 C 2.984375 -22.015625 2.9375 -23.039062 2.9375 -23.96875 C 2.882812 -27.875 3.421875 -31.851562 4.546875 -35.90625 C 4.785156 -36.882812 5.078125 -37.863281 5.421875 -38.84375 C 5.816406 -39.914062 6.207031 -40.890625 6.59375 -41.765625 C 7.082031 -42.796875 7.671875 -43.773438 8.359375 -44.703125 C 9.035156 -45.679688 9.816406 -46.5625 10.703125 -47.34375 C 12.703125 -49.101562 14.945312 -50.175781 17.4375 -50.5625 C 18.070312 -50.65625 18.707031 -50.703125 19.34375 -50.703125 C 19.488281 -50.703125 19.832031 -50.679688 20.375 -50.640625 L 20.890625 -50.640625 L 21.46875 -50.484375 C 22.6875 -50.191406 23.929688 -49.65625 25.203125 -48.875 C 26.085938 -48.289062 26.992188 -47.507812 27.921875 -46.53125 C 28.648438 -45.800781 29.359375 -44.898438 30.046875 -43.828125 C 30.628906 -42.898438 31.140625 -41.820312 31.578125 -40.59375 C 32.023438 -39.375 32.296875 -38.128906 32.390625 -36.859375 L 25.359375 -36.5625 C 25.304688 -37.15625 25.179688 -37.71875 24.984375 -38.25 C 24.691406 -38.988281 24.398438 -39.597656 24.109375 -40.078125 C 23.328125 -41.304688 22.398438 -42.285156 21.328125 -43.015625 C 20.785156 -43.359375 20.34375 -43.554688 20 -43.609375 C 19.957031 -43.609375 19.9375 -43.609375 19.9375 -43.609375 C 19.882812 -43.609375 19.859375 -43.628906 19.859375 -43.671875 L 19.78125 -43.671875 C 19.738281 -43.671875 19.664062 -43.671875 19.5625 -43.671875 C 19.46875 -43.671875 19.394531 -43.671875 19.34375 -43.671875 C 19.050781 -43.671875 18.785156 -43.648438 18.546875 -43.609375 C 17.421875 -43.410156 16.367188 -42.894531 15.390625 -42.0625 C 14.847656 -41.625 14.40625 -41.132812 14.0625 -40.59375 C 13.625 -40.007812 13.257812 -39.398438 12.96875 -38.765625 C 12.4375 -37.546875 11.898438 -35.984375 11.359375 -34.078125 C 10.378906 -30.609375 9.914062 -27.257812 9.96875 -24.03125 C 9.96875 -23.300781 10.015625 -22.5 10.109375 -21.625 C 10.210938 -20.6875 10.335938 -19.878906 10.484375 -19.203125 C 10.828125 -17.492188 11.289062 -15.953125 11.875 -14.578125 C 12.507812 -13.066406 13.265625 -11.75 14.140625 -10.625 C 14.628906 -10.082031 15.128906 -9.59375 15.640625 -9.15625 C 16.160156 -8.71875 16.710938 -8.351562 17.296875 -8.0625 C 18.460938 -7.476562 19.585938 -7.257812 20.671875 -7.40625 C 21.203125 -7.5 21.6875 -7.671875 22.125 -7.921875 C 22.664062 -8.160156 23.128906 -8.472656 23.515625 -8.859375 C 23.960938 -9.304688 24.359375 -9.820312 24.703125 -10.40625 C 25.035156 -10.945312 25.328125 -11.554688 25.578125 -12.234375 C 25.773438 -12.828125 25.945312 -13.515625 26.09375 -14.296875 C 26.1875 -14.878906 26.207031 -15.5625 26.15625 -16.34375 Z M 33.203125 -16.78125 "/></g></g><g style="fill:#ffffff;fill-opacity:1;"><g transform="translate(192.979432, 98.491748)"><path style="stroke:none" d="M 20.15625 -35.46875 L 20.515625 -28.4375 C 19.148438 -28.332031 17.859375 -28.0625 16.640625 -27.625 C 16.046875 -27.382812 15.484375 -27.09375 14.953125 -26.75 C 14.703125 -26.601562 14.429688 -26.429688 14.140625 -26.234375 L 13.84375 -25.9375 L 13.484375 -25.65625 C 12.503906 -24.769531 11.769531 -23.789062 11.28125 -22.71875 C 10.789062 -21.644531 10.546875 -20.492188 10.546875 -19.265625 L 10.484375 -19.265625 C 10.628906 -15.117188 10.800781 -11.335938 11 -7.921875 L 3.953125 -7.546875 C 3.460938 -16.679688 3.125 -25.84375 2.9375 -35.03125 L 9.96875 -35.171875 C 9.96875 -34.785156 9.976562 -34.175781 10 -33.34375 C 10.03125 -32.507812 10.046875 -32.046875 10.046875 -31.953125 C 10.484375 -32.296875 10.875 -32.5625 11.21875 -32.75 C 12.144531 -33.289062 13.09375 -33.757812 14.0625 -34.15625 C 15.96875 -34.882812 18 -35.320312 20.15625 -35.46875 Z M 20.15625 -35.46875 "/></g></g><g style="fill:#ffffff;fill-opacity:1;"><g transform="translate(216.426827, 98.491748)"><path style="stroke:none" d="M 18.46875 -16.046875 C 18.5625 -16.335938 18.609375 -16.582031 18.609375 -16.78125 L 25.65625 -16.421875 C 25.601562 -15.535156 25.40625 -14.628906 25.0625 -13.703125 C 24.769531 -12.867188 24.40625 -12.085938 23.96875 -11.359375 C 23.425781 -10.578125 22.835938 -9.894531 22.203125 -9.3125 C 21.421875 -8.570312 20.59375 -8.03125 19.71875 -7.6875 C 19.613281 -7.644531 19.488281 -7.597656 19.34375 -7.546875 L 19.046875 -7.46875 L 18.546875 -7.25 C 18.492188 -7.25 18.421875 -7.226562 18.328125 -7.1875 L 17.875 -7.03125 L 17.296875 -6.96875 C 16.609375 -6.8125 15.753906 -6.710938 14.734375 -6.671875 C 13.023438 -6.710938 11.363281 -7.148438 9.75 -7.984375 C 8.28125 -8.765625 6.992188 -9.816406 5.890625 -11.140625 C 4.796875 -12.460938 4.003906 -13.90625 3.515625 -15.46875 C 3.421875 -15.707031 3.320312 -16.144531 3.21875 -16.78125 L 3.15625 -17.078125 C 3.15625 -17.117188 3.128906 -17.191406 3.078125 -17.296875 C 3.078125 -17.347656 3.078125 -17.375 3.078125 -17.375 C 3.023438 -17.707031 3 -17.875 3 -17.875 C 2.957031 -18.5625 2.9375 -19.296875 2.9375 -20.078125 C 2.9375 -21.546875 3.101562 -22.988281 3.4375 -24.40625 C 3.738281 -25.769531 4.179688 -27.132812 4.765625 -28.5 C 5.492188 -30.113281 6.394531 -31.457031 7.46875 -32.53125 C 8.101562 -33.164062 8.800781 -33.703125 9.5625 -34.140625 C 10.320312 -34.585938 11.140625 -34.929688 12.015625 -35.171875 C 13.921875 -35.753906 15.753906 -35.804688 17.515625 -35.328125 C 18.441406 -35.078125 19.320312 -34.660156 20.15625 -34.078125 C 20.882812 -33.585938 21.566406 -33 22.203125 -32.3125 C 22.453125 -32.019531 22.695312 -31.703125 22.9375 -31.359375 L 23.015625 -31.21875 L 23.15625 -31.078125 L 23.296875 -30.78125 C 23.398438 -30.632812 23.523438 -30.414062 23.671875 -30.125 C 24.015625 -29.488281 24.332031 -28.753906 24.625 -27.921875 C 24.96875 -26.796875 25.285156 -25.476562 25.578125 -23.96875 C 25.722656 -23.226562 25.820312 -22.566406 25.875 -21.984375 C 25.96875 -21.203125 26.015625 -20.519531 26.015625 -19.9375 L 18.984375 -19.640625 C 16.929688 -19.546875 13.925781 -19.375 9.96875 -19.125 C 10.019531 -18.882812 10.046875 -18.710938 10.046875 -18.609375 C 10.046875 -18.566406 10.046875 -18.507812 10.046875 -18.4375 C 10.046875 -18.363281 10.066406 -18.300781 10.109375 -18.25 C 10.109375 -18.25 10.109375 -18.222656 10.109375 -18.171875 C 10.109375 -18.117188 10.109375 -18.09375 10.109375 -18.09375 L 10.109375 -17.953125 C 10.210938 -17.660156 10.265625 -17.515625 10.265625 -17.515625 C 10.453125 -16.828125 10.789062 -16.191406 11.28125 -15.609375 C 11.769531 -15.023438 12.332031 -14.5625 12.96875 -14.21875 C 13.65625 -13.875 14.289062 -13.703125 14.875 -13.703125 C 15.414062 -13.753906 15.757812 -13.800781 15.90625 -13.84375 L 16.1875 -13.921875 C 16.1875 -13.921875 16.222656 -13.929688 16.296875 -13.953125 C 16.378906 -13.984375 16.421875 -14 16.421875 -14 L 16.703125 -14.0625 L 16.859375 -14.140625 C 16.898438 -14.140625 16.921875 -14.140625 16.921875 -14.140625 C 17.117188 -14.242188 17.289062 -14.367188 17.4375 -14.515625 C 17.632812 -14.703125 17.832031 -14.921875 18.03125 -15.171875 C 18.175781 -15.460938 18.320312 -15.753906 18.46875 -16.046875 Z M 12.453125 -27.546875 C 11.960938 -27.066406 11.550781 -26.410156 11.21875 -25.578125 C 11.164062 -25.523438 11.113281 -25.398438 11.0625 -25.203125 C 13.800781 -25.398438 16.097656 -25.550781 17.953125 -25.65625 L 17.875 -25.71875 C 17.726562 -26.15625 17.582031 -26.523438 17.4375 -26.828125 C 17.394531 -26.972656 17.375 -27.046875 17.375 -27.046875 C 17.375 -27.046875 17.359375 -27.054688 17.328125 -27.078125 C 17.304688 -27.097656 17.296875 -27.109375 17.296875 -27.109375 L 17.21875 -27.1875 C 17.125 -27.382812 17.003906 -27.53125 16.859375 -27.625 C 16.460938 -28.113281 16.046875 -28.40625 15.609375 -28.5 C 15.171875 -28.644531 14.632812 -28.625 14 -28.4375 C 13.707031 -28.332031 13.4375 -28.207031 13.1875 -28.0625 C 12.945312 -27.914062 12.703125 -27.742188 12.453125 -27.546875 Z M 12.453125 -27.546875 "/></g></g><g style="fill:#ffffff;fill-opacity:1;"><g transform="translate(245.442973, 98.491748)"><path style="stroke:none" d="M 20.734375 -18.09375 C 20.835938 -14.332031 20.835938 -10.625 20.734375 -6.96875 L 13.703125 -7.25 C 13.703125 -7.351562 13.703125 -7.550781 13.703125 -7.84375 C 13.703125 -8.132812 13.703125 -8.28125 13.703125 -8.28125 C 13.460938 -8.226562 13.289062 -8.203125 13.1875 -8.203125 C 12.695312 -8.109375 12.1875 -8.035156 11.65625 -7.984375 C 11.164062 -7.941406 10.894531 -7.921875 10.84375 -7.921875 C 10.40625 -7.921875 10.113281 -7.941406 9.96875 -7.984375 C 7.519531 -8.234375 5.46875 -9.257812 3.8125 -11.0625 C 2.925781 -11.988281 2.289062 -13.039062 1.90625 -14.21875 C 1.507812 -15.4375 1.382812 -16.65625 1.53125 -17.875 C 1.632812 -19.050781 1.976562 -20.175781 2.5625 -21.25 C 2.8125 -21.738281 3.128906 -22.253906 3.515625 -22.796875 C 3.910156 -23.234375 4.328125 -23.644531 4.765625 -24.03125 C 6.472656 -25.550781 8.5 -26.382812 10.84375 -26.53125 C 11.675781 -26.570312 12.507812 -26.546875 13.34375 -26.453125 C 13.238281 -27.285156 13.164062 -27.96875 13.125 -28.5 C 13.019531 -29.28125 12.867188 -29.96875 12.671875 -30.5625 C 12.484375 -31.144531 12.238281 -31.65625 11.9375 -32.09375 C 11.695312 -32.4375 11.476562 -32.65625 11.28125 -32.75 C 10.988281 -32.90625 10.722656 -32.957031 10.484375 -32.90625 C 10.378906 -32.90625 10.28125 -32.878906 10.1875 -32.828125 C 10.09375 -32.773438 9.992188 -32.726562 9.890625 -32.6875 C 9.742188 -32.539062 9.644531 -32.414062 9.59375 -32.3125 L 9.53125 -32.3125 C 9.53125 -32.3125 9.503906 -32.265625 9.453125 -32.171875 L 9.3125 -31.875 L 9.015625 -31.4375 C 8.867188 -31.195312 8.769531 -31.023438 8.71875 -30.921875 C 8.664062 -30.828125 8.640625 -30.632812 8.640625 -30.34375 C 8.597656 -29.894531 8.550781 -29.085938 8.5 -27.921875 L 1.46875 -28.0625 C 1.507812 -29.476562 1.554688 -30.484375 1.609375 -31.078125 C 1.710938 -31.898438 1.859375 -32.609375 2.046875 -33.203125 C 2.242188 -33.785156 2.5625 -34.421875 3 -35.109375 C 3.101562 -35.296875 3.25 -35.535156 3.4375 -35.828125 L 3.671875 -36.125 L 3.734375 -36.28125 L 3.890625 -36.5 C 4.328125 -37.082031 4.863281 -37.640625 5.5 -38.171875 C 6.769531 -39.203125 8.234375 -39.789062 9.890625 -39.9375 C 11.453125 -40.082031 12.96875 -39.789062 14.4375 -39.0625 C 15.125 -38.71875 15.757812 -38.253906 16.34375 -37.671875 C 16.832031 -37.222656 17.296875 -36.679688 17.734375 -36.046875 C 18.421875 -35.078125 18.957031 -33.957031 19.34375 -32.6875 C 19.6875 -31.707031 19.929688 -30.628906 20.078125 -29.453125 C 20.171875 -28.671875 20.269531 -27.671875 20.375 -26.453125 C 20.425781 -25.429688 20.472656 -24.503906 20.515625 -23.671875 C 20.617188 -22.003906 20.691406 -20.242188 20.734375 -18.390625 C 20.734375 -18.390625 20.742188 -18.351562 20.765625 -18.28125 C 20.796875 -18.207031 20.8125 -18.171875 20.8125 -18.171875 L 20.734375 -18.171875 Z M 12.828125 -15.46875 C 13.066406 -15.613281 13.285156 -15.804688 13.484375 -16.046875 C 13.578125 -16.191406 13.675781 -16.363281 13.78125 -16.5625 C 13.726562 -17.488281 13.703125 -17.953125 13.703125 -17.953125 C 13.648438 -18.441406 13.457031 -18.804688 13.125 -19.046875 C 12.925781 -19.242188 12.679688 -19.367188 12.390625 -19.421875 C 12.046875 -19.515625 11.703125 -19.539062 11.359375 -19.5 C 10.578125 -19.445312 9.914062 -19.203125 9.375 -18.765625 C 8.882812 -18.367188 8.59375 -17.828125 8.5 -17.140625 C 8.5 -16.898438 8.523438 -16.660156 8.578125 -16.421875 C 8.671875 -16.222656 8.789062 -16.023438 8.9375 -15.828125 C 9.425781 -15.285156 9.988281 -14.992188 10.625 -14.953125 C 10.625 -14.953125 10.644531 -14.953125 10.6875 -14.953125 C 10.738281 -14.953125 10.789062 -14.953125 10.84375 -14.953125 C 10.84375 -14.953125 10.878906 -14.953125 10.953125 -14.953125 C 11.023438 -14.953125 11.085938 -14.953125 11.140625 -14.953125 C 11.335938 -14.992188 11.554688 -15.039062 11.796875 -15.09375 C 12.140625 -15.144531 12.484375 -15.269531 12.828125 -15.46875 Z M 12.828125 -15.46875 "/></g></g><g style="fill:#ffffff;fill-opacity:1;"><g transform="translate(269.403285, 98.491748)"><path style="stroke:none" d="M 23.8125 -34.078125 L 23.671875 -27.046875 C 21.671875 -27.085938 19.375 -27.109375 16.78125 -27.109375 L 16.859375 -16.78125 C 16.898438 -11.945312 16.875 -8.304688 16.78125 -5.859375 L 9.75 -6.15625 C 9.84375 -8.5 9.863281 -12.015625 9.8125 -16.703125 L 9.75 -27.109375 C 7.007812 -27.109375 4.738281 -27.109375 2.9375 -27.109375 L 3 -34.15625 C 4.8125 -34.15625 7.035156 -34.15625 9.671875 -34.15625 L 9.59375 -38.171875 C 9.59375 -43.054688 9.644531 -46.695312 9.75 -49.09375 L 16.78125 -48.8125 C 16.6875 -46.457031 16.640625 -42.9375 16.640625 -38.25 L 16.703125 -34.15625 C 19.390625 -34.15625 21.757812 -34.128906 23.8125 -34.078125 Z M 23.8125 -34.078125 "/></g></g><g style="fill:#ffffff;fill-opacity:1;"><g transform="translate(296.221259, 98.491748)"><path style="stroke:none" d="M 10.484375 -28.578125 C 10.578125 -22.671875 10.84375 -16.023438 11.28125 -8.640625 L 4.25 -8.28125 C 3.8125 -15.757812 3.539062 -22.476562 3.4375 -28.4375 Z M 9.703125 -33.484375 C 8.953125 -32.703125 8.035156 -32.285156 6.953125 -32.234375 C 5.878906 -32.191406 4.953125 -32.546875 4.171875 -33.296875 C 3.390625 -34.054688 2.972656 -34.972656 2.921875 -36.046875 C 2.878906 -37.128906 3.234375 -38.0625 3.984375 -38.84375 C 4.742188 -39.625 5.660156 -40.035156 6.734375 -40.078125 C 7.472656 -40.078125 8.144531 -39.914062 8.75 -39.59375 C 9.363281 -39.28125 9.851562 -38.832031 10.21875 -38.25 C 10.582031 -37.664062 10.765625 -37.007812 10.765625 -36.28125 C 10.816406 -35.195312 10.460938 -34.265625 9.703125 -33.484375 Z M 9.703125 -33.484375 "/></g></g><g style="fill:#ffffff;fill-opacity:1;"><g transform="translate(310.582778, 98.491748)"><path style="stroke:none" d="M 17.875 -34.4375 L 24.625 -32.46875 C 23.9375 -30.070312 23.007812 -26.773438 21.84375 -22.578125 L 21.171875 -20 L 20.8125 -18.765625 L 20.21875 -16.859375 C 19.539062 -14.753906 19.003906 -13.140625 18.609375 -12.015625 L 17.734375 -9.671875 L 16.921875 -7.40625 L 10.265625 -7.625 C 9.867188 -8.789062 9.351562 -10.425781 8.71875 -12.53125 L 7.984375 -15.015625 L 7.328125 -17.515625 L 6.453125 -20.453125 L 5.796875 -23.015625 C 4.816406 -26.484375 3.910156 -29.898438 3.078125 -33.265625 L 9.890625 -35.03125 C 10.722656 -31.707031 11.601562 -28.3125 12.53125 -24.84375 L 13.84375 -20.15625 L 14 -20.734375 L 14.359375 -21.984375 L 15.09375 -24.46875 C 16.21875 -28.675781 17.144531 -32 17.875 -34.4375 Z M 17.875 -34.4375 "/></g></g><g style="fill:#ffffff;fill-opacity:1;"><g transform="translate(338.353298, 98.491748)"><path style="stroke:none" d="M 18.46875 -16.046875 C 18.5625 -16.335938 18.609375 -16.582031 18.609375 -16.78125 L 25.65625 -16.421875 C 25.601562 -15.535156 25.40625 -14.628906 25.0625 -13.703125 C 24.769531 -12.867188 24.40625 -12.085938 23.96875 -11.359375 C 23.425781 -10.578125 22.835938 -9.894531 22.203125 -9.3125 C 21.421875 -8.570312 20.59375 -8.03125 19.71875 -7.6875 C 19.613281 -7.644531 19.488281 -7.597656 19.34375 -7.546875 L 19.046875 -7.46875 L 18.546875 -7.25 C 18.492188 -7.25 18.421875 -7.226562 18.328125 -7.1875 L 17.875 -7.03125 L 17.296875 -6.96875 C 16.609375 -6.8125 15.753906 -6.710938 14.734375 -6.671875 C 13.023438 -6.710938 11.363281 -7.148438 9.75 -7.984375 C 8.28125 -8.765625 6.992188 -9.816406 5.890625 -11.140625 C 4.796875 -12.460938 4.003906 -13.90625 3.515625 -15.46875 C 3.421875 -15.707031 3.320312 -16.144531 3.21875 -16.78125 L 3.15625 -17.078125 C 3.15625 -17.117188 3.128906 -17.191406 3.078125 -17.296875 C 3.078125 -17.347656 3.078125 -17.375 3.078125 -17.375 C 3.023438 -17.707031 3 -17.875 3 -17.875 C 2.957031 -18.5625 2.9375 -19.296875 2.9375 -20.078125 C 2.9375 -21.546875 3.101562 -22.988281 3.4375 -24.40625 C 3.738281 -25.769531 4.179688 -27.132812 4.765625 -28.5 C 5.492188 -30.113281 6.394531 -31.457031 7.46875 -32.53125 C 8.101562 -33.164062 8.800781 -33.703125 9.5625 -34.140625 C 10.320312 -34.585938 11.140625 -34.929688 12.015625 -35.171875 C 13.921875 -35.753906 15.753906 -35.804688 17.515625 -35.328125 C 18.441406 -35.078125 19.320312 -34.660156 20.15625 -34.078125 C 20.882812 -33.585938 21.566406 -33 22.203125 -32.3125 C 22.453125 -32.019531 22.695312 -31.703125 22.9375 -31.359375 L 23.015625 -31.21875 L 23.15625 -31.078125 L 23.296875 -30.78125 C 23.398438 -30.632812 23.523438 -30.414062 23.671875 -30.125 C 24.015625 -29.488281 24.332031 -28.753906 24.625 -27.921875 C 24.96875 -26.796875 25.285156 -25.476562 25.578125 -23.96875 C 25.722656 -23.226562 25.820312 -22.566406 25.875 -21.984375 C 25.96875 -21.203125 26.015625 -20.519531 26.015625 -19.9375 L 18.984375 -19.640625 C 16.929688 -19.546875 13.925781 -19.375 9.96875 -19.125 C 10.019531 -18.882812 10.046875 -18.710938 10.046875 -18.609375 C 10.046875 -18.566406 10.046875 -18.507812 10.046875 -18.4375 C 10.046875 -18.363281 10.066406 -18.300781 10.109375 -18.25 C 10.109375 -18.25 10.109375 -18.222656 10.109375 -18.171875 C 10.109375 -18.117188 10.109375 -18.09375 10.109375 -18.09375 L 10.109375 -17.953125 C 10.210938 -17.660156 10.265625 -17.515625 10.265625 -17.515625 C 10.453125 -16.828125 10.789062 -16.191406 11.28125 -15.609375 C 11.769531 -15.023438 12.332031 -14.5625 12.96875 -14.21875 C 13.65625 -13.875 14.289062 -13.703125 14.875 -13.703125 C 15.414062 -13.753906 15.757812 -13.800781 15.90625 -13.84375 L 16.1875 -13.921875 C 16.1875 -13.921875 16.222656 -13.929688 16.296875 -13.953125 C 16.378906 -13.984375 16.421875 -14 16.421875 -14 L 16.703125 -14.0625 L 16.859375 -14.140625 C 16.898438 -14.140625 16.921875 -14.140625 16.921875 -14.140625 C 17.117188 -14.242188 17.289062 -14.367188 17.4375 -14.515625 C 17.632812 -14.703125 17.832031 -14.921875 18.03125 -15.171875 C 18.175781 -15.460938 18.320312 -15.753906 18.46875 -16.046875 Z M 12.453125 -27.546875 C 11.960938 -27.066406 11.550781 -26.410156 11.21875 -25.578125 C 11.164062 -25.523438 11.113281 -25.398438 11.0625 -25.203125 C 13.800781 -25.398438 16.097656 -25.550781 17.953125 -25.65625 L 17.875 -25.71875 C 17.726562 -26.15625 17.582031 -26.523438 17.4375 -26.828125 C 17.394531 -26.972656 17.375 -27.046875 17.375 -27.046875 C 17.375 -27.046875 17.359375 -27.054688 17.328125 -27.078125 C 17.304688 -27.097656 17.296875 -27.109375 17.296875 -27.109375 L 17.21875 -27.1875 C 17.125 -27.382812 17.003906 -27.53125 16.859375 -27.625 C 16.460938 -28.113281 16.046875 -28.40625 15.609375 -28.5 C 15.171875 -28.644531 14.632812 -28.625 14 -28.4375 C 13.707031 -28.332031 13.4375 -28.207031 13.1875 -28.0625 C 12.945312 -27.914062 12.703125 -27.742188 12.453125 -27.546875 Z M 12.453125 -27.546875 "/></g></g><g style="fill:#ffffff;fill-opacity:1;"><g transform="translate(367.369431, 98.491748)"><path style="stroke:none" d="M 3.515625 -45.140625 L 8.578125 -45.4375 C 8.617188 -44.113281 8.640625 -42.476562 8.640625 -40.53125 C 8.640625 -38.625 8.617188 -36.984375 8.578125 -35.609375 L 3.59375 -35.765625 C 3.6875 -38.984375 3.660156 -42.109375 3.515625 -45.140625 Z M 15.171875 -45.4375 C 15.222656 -44.113281 15.25 -42.476562 15.25 -40.53125 C 15.289062 -38.625 15.289062 -36.984375 15.25 -35.609375 L 10.1875 -35.765625 C 10.28125 -39.035156 10.253906 -42.160156 10.109375 -45.140625 Z M 15.171875 -45.4375 "/></g></g></g></svg>